<svg width="121" height="125" viewBox="0 0 121 125" fill="none" xmlns="http://www.w3.org/2000/svg">
<path d="M71.9531 15.3652C70.9834 14.1185 69.8757 13.2877 68.6289 12.8719C65.8586 8.16303 59.3494 9.27081 55.0554 11.7641C49.7926 14.6724 44.9449 20.074 43.5594 26.1684C40.6511 38.4953 53.3928 48.8821 65.1658 44.1737C75.9699 39.7419 78.8782 24.229 71.9529 15.3652L71.9531 15.3652ZM55.7484 19.1051C57.2719 17.7204 58.9335 17.0276 60.4572 16.6118C57.133 22.2902 59.6264 34.6171 51.8705 36.2788C50.3469 34.7552 49.3772 32.6777 49.516 30.0465C49.516 25.6147 52.5632 21.7366 55.7484 19.1053V19.1051ZM57.8258 39.1878C61.4269 35.4478 62.9506 31.0158 63.6433 25.1994C63.7823 23.6759 64.0592 18.828 65.9978 18.2741C68.0752 17.7203 68.7681 20.7674 69.322 22.2911C70.5687 26.3081 70.5687 31.1549 68.0753 34.756C65.8589 38.3562 61.566 39.7417 57.826 39.1878H57.8258Z" fill="#FE641E"/>
<path d="M61.9807 69.5203C69.7367 55.5319 86.9113 48.6066 89.2655 31.2927C90.7891 19.9356 84.9726 8.16262 74.5844 3.03785C57.5489 -5.41092 32.4812 4.42253 29.9875 24.3674C29.0177 31.9855 31.6491 38.2178 36.4968 43.8964C43.1451 51.5145 51.04 57.6079 56.7186 66.0567C56.7186 66.1956 56.5797 66.1956 56.5797 66.3336C54.7792 69.7967 60.0428 72.9819 61.9813 69.5197L61.9807 69.5203ZM47.5764 47.6361C43.2826 43.2043 37.6039 38.6335 35.9425 32.4012C34.2809 26.7227 35.6655 20.6282 39.5436 15.3656C45.7759 6.91688 58.6567 3.73173 68.4916 6.63982C78.187 9.54813 84.4196 19.2435 83.5886 29.0769C82.4809 43.62 67.7998 51.3761 59.4885 62.317C56.0254 56.9163 51.8705 52.2066 47.5766 47.6359L47.5764 47.6361Z" fill="#FE641E"/>
<path d="M3.94906 77.552C2.84042 84.0614 2.84042 90.8476 2.70239 97.4958C2.56348 104.975 2.56348 112.454 2.56348 119.933C2.56348 122.01 4.2251 123.534 6.30341 123.673C23.616 123.95 40.9299 123.95 58.3793 124.089C66.8281 124.089 75.138 123.812 83.5868 123.258C88.0185 122.981 92.4506 122.842 96.8832 122.565C100.068 122.426 103.393 122.565 106.579 121.872C116.828 119.518 119.598 109.685 120.29 100.543C120.706 95.6951 121.398 90.4323 120.706 85.7226C120.29 82.3984 116.412 80.7369 114.474 82.5375C112.95 84.061 113.089 84.7538 113.227 87.1083C113.227 87.3853 113.643 93.0638 113.643 95.5571C113.643 99.1582 113.92 102.759 113.366 106.36C112.535 110.931 111.288 114.393 106.857 116.471C101.732 118.825 92.8682 118.271 86.9118 117.855C86.7729 117.855 86.7729 82.2611 86.634 80.877C90.2351 80.0462 93.4202 77.6918 95.4978 74.6447C98.1291 78.5226 102.423 81.154 107.271 81.154C113.919 81.154 119.182 76.0293 120.844 69.797C120.983 69.1042 120.983 68.5503 120.705 67.9964C119.182 62.5948 117.935 57.1932 116.135 51.9305C115.996 48.7454 115.719 45.5591 115.581 42.3739C115.442 41.1273 114.611 40.0195 113.226 40.0195C108.795 40.0195 89.2657 40.7123 88.2957 40.8503C87.049 40.9892 86.2182 43.6207 88.2957 44.0355C89.2654 44.1744 107.132 44.8663 111.009 44.8663C111.148 46.3899 111.286 48.0514 111.425 49.5751C107.131 49.5751 91.8962 49.5751 88.572 49.714C87.0484 49.714 85.1098 49.714 83.8631 50.5449C82.8934 51.2376 82.8934 52.3454 83.8631 53.1761C85.1098 54.1458 87.1874 54.0069 88.572 54.0069H91.4803C91.4803 56.5002 92.865 65.6408 93.2808 67.7184C93.1419 67.8573 93.1419 67.9954 93.0039 68.2723C91.8961 72.2893 88.5721 75.8903 84.1401 75.8903C79.9851 75.8903 76.2452 72.2893 74.7215 68.965C74.8604 66.3338 70.5665 65.364 69.8738 68.1342C68.766 72.1512 65.442 75.7523 61.01 75.7523C56.855 75.7523 53.1151 72.1512 51.5914 68.827C51.7303 66.1957 47.4365 65.2259 46.7437 67.9962C45.6359 72.0132 42.3119 75.6142 37.8799 75.6142C33.309 75.6142 29.4311 71.4593 28.0465 67.9962C28.4624 65.7798 30.4009 56.5002 30.5398 54.0078C32.2014 54.0078 38.7118 53.8689 39.9584 52.7612C40.5123 52.3453 40.5123 51.0996 39.9584 50.6837C38.7117 49.714 15.721 49.437 11.0103 49.437C11.1493 47.6365 11.1492 45.6971 11.2873 43.8966C14.3345 43.8966 29.0158 43.2038 29.7085 43.0658C32.063 42.6499 31.786 40.0186 29.9855 39.8806C29.2927 39.8806 12.6729 39.0498 8.93298 39.0498C7.68631 39.0498 6.43969 40.1576 6.57856 41.4042C6.71747 44.4514 6.57856 47.4986 6.43965 50.5458C6.43965 50.6847 6.30074 50.6847 6.30074 50.8227C4.08523 55.9466 2.56171 60.6554 0.900044 65.364C-0.207711 68.6883 -0.484633 70.9045 1.17699 74.2278C1.86977 75.6134 2.83861 76.5831 3.94733 77.5527L3.94906 77.552ZM111.981 54.2824C113.089 59.1301 114.473 64.1166 115.859 68.9634C114.612 72.7034 111.427 76.0267 107.133 76.1656C102.978 76.1656 99.377 72.7034 97.7145 69.5173V69.2404C97.5756 66.47 97.1606 56.4978 96.7447 54.1434C97.2995 54.1443 107.41 54.2823 111.981 54.2823L111.981 54.2824ZM37.6055 81.0135C42.4532 81.0135 46.4693 78.2432 49.1014 74.5041C51.7327 78.382 56.0267 81.0135 60.8745 81.0135C65.7222 81.0135 69.7383 78.2432 72.3704 74.5041C74.5868 77.5513 77.6331 79.9057 81.3731 80.7365C81.2342 81.9831 81.3731 83.3677 81.2342 84.6143C81.0952 89.3232 80.9572 93.8938 80.8183 98.6027C80.6794 103.174 80.5414 107.882 80.4024 112.453C80.4024 114.115 80.2635 115.638 80.2635 117.301C56.8566 115.916 33.4497 116.47 10.0428 116.193C9.76671 109.961 9.6287 103.728 9.48979 97.4949C9.21285 91.8165 9.07481 85.861 8.38204 80.1824C11.5672 81.2901 15.0303 81.429 18.0775 80.5982C21.2626 79.6285 23.895 77.274 25.6955 74.5039C28.3261 78.3818 32.6199 81.1521 37.6056 81.0132L37.6055 81.0135ZM9.90657 54.4219C14.7543 54.4219 19.7399 54.4219 24.5877 54.283C24.1718 56.4994 22.926 69.518 22.926 69.6571C21.5414 72.8422 18.6322 75.4746 15.0312 75.8894C10.4603 76.3052 5.61257 74.2277 4.78185 69.518V69.241C4.91988 68.9641 8.9368 57.1921 9.90661 54.4217L9.90657 54.4219Z" fill="#FE641E"/>
<path d="M25.1397 109.686C34.8351 103.453 44.3916 96.805 53.255 89.6029C54.6396 88.4951 52.8391 86.1407 51.3155 87.1096C41.8969 93.6189 32.7563 100.821 23.8912 108.3C23.1993 108.993 24.3079 110.239 25.1387 109.686L25.1397 109.686Z" fill="#FE641E"/>
<path d="M44.5295 105.392C43.5598 106.499 44.5295 108.577 46.0531 108.023C54.6398 105.115 61.4271 97.6356 67.3826 91.2642C67.9365 90.7104 67.2437 89.7406 66.5518 90.1565C59.3497 95.1421 50.347 98.8823 44.5295 105.391L44.5295 105.392Z" fill="#FE641E"/>
</svg>
