<svg width="88" height="112" viewBox="0 0 88 112" fill="none" xmlns="http://www.w3.org/2000/svg">
<path d="M76.4542 44.4701C76.3283 44.4701 76.3283 44.596 76.2032 44.596C75.9522 44.4701 75.8264 44.345 75.5754 44.0941C69.802 40.5801 60.3895 43.7172 54.7425 46.2275C50.0986 48.2359 43.1957 53.2557 41.5642 58.9031C38.5519 56.1419 35.1638 53.7576 31.649 51.875C24.2439 47.8591 13.1999 45.9765 8.179 54.3853C8.05313 54.6363 8.05313 54.8872 8.05313 55.1382C5.66881 56.6439 3.78619 59.4051 2.65654 62.2921C-0.354091 69.6972 -0.604941 77.98 0.900702 85.5113C4.0388 100.948 18.8479 115.756 35.6651 110.862C43.321 108.602 50.475 103.708 53.3614 95.9267C53.4873 95.5499 53.6124 95.299 53.7383 94.9229C59.7626 95.0488 65.1592 95.4248 70.6816 92.4126C76.329 89.2753 80.8478 82.4974 83.6082 76.7247C86.6205 70.4494 88.126 63.0445 86.9972 56.0162C86.3694 52.0003 82.1025 42.0849 76.4543 44.4694L76.4542 44.4701ZM51.6055 72.333C51.4796 72.0821 51.3546 71.8311 51.2287 71.5802C52.8602 65.054 58.1318 61.0381 64.0303 58.0258C67.4193 56.2684 71.4353 55.0135 74.1965 52.5034C71.8122 60.2843 62.9015 64.0501 57.5041 69.5717C55.6216 71.4543 54.1151 73.3368 52.8602 75.3452C52.4842 74.3414 51.9815 73.3368 51.6055 72.3329V72.333ZM49.0951 56.2683C51.3545 53.7579 54.1157 52.0014 57.1271 50.6209C59.8883 49.3661 68.9249 46.2281 72.815 47.8596C71.0575 50.37 68.1711 51.4997 65.536 52.6285C62.3987 54.0091 59.3866 55.5147 56.4994 57.5232C52.9854 60.0335 50.224 62.9198 47.9647 66.3087C46.9609 64.9281 45.9563 63.6733 44.8274 62.4178C46.3339 60.4102 47.3384 58.1509 49.0951 56.2685V56.2683ZM6.04647 83.3766C4.9168 77.1013 5.29363 70.3242 7.55216 64.2998C8.05404 63.0451 8.68183 61.5386 9.56054 60.6598C11.5689 64.9268 10.5643 69.5704 10.9411 74.2142C11.318 79.4858 12.3218 84.6313 14.4551 89.526C16.4635 94.1698 19.4756 98.3115 23.6167 101.324C26.3779 103.332 29.6411 104.587 33.0292 105.591C19.2246 109.106 8.18055 95.6764 6.04729 83.3771L6.04647 83.3766ZM15.8358 62.1664C17.4674 64.0489 18.7221 66.6842 19.4758 68.5668C22.1112 75.8458 22.739 83.6277 26.2529 90.656C27.6335 93.4173 29.3902 96.1785 31.3985 98.563C29.265 97.9352 27.2565 96.9314 25.3741 95.4257C21.3582 92.1626 19.0987 87.3937 17.7182 82.4991C16.3376 77.6044 16.3376 72.7097 16.2126 67.5642C16.3384 65.9326 16.2126 64.0494 15.8357 62.1668L15.8358 62.1664ZM43.3215 100.07C43.1956 100.07 43.0705 100.07 43.0705 99.9437C33.532 97.6844 29.2653 85.2596 27.2568 76.851C25.3743 68.944 23.7429 59.7826 15.9618 55.2634C15.8359 55.1375 15.7108 55.1375 15.5849 55.0125C22.99 54.1337 30.1431 57.3968 35.9164 62.4175C34.159 62.5434 32.4024 63.1703 31.0217 64.4259C30.143 65.1787 30.8959 66.5594 31.9004 66.5594C34.9127 66.6852 37.6739 66.0575 40.4351 66.9362C41.6899 68.3168 42.6944 69.8224 43.6982 71.329C41.3139 70.5761 38.8036 70.4502 36.5443 71.4548C35.2895 72.0826 35.2895 74.216 36.5443 74.8438C38.5527 75.8476 41.062 75.7225 43.1963 76.2244C44.702 76.6012 45.9575 77.354 47.2122 78.2328C47.7141 79.4875 48.0909 80.8681 48.3419 82.2486C45.7065 81.119 42.5684 80.868 40.561 81.9977C39.3062 82.6255 39.4313 85.01 40.9378 85.2608C42.5694 85.5118 44.2009 85.6376 45.7067 86.1395C46.4595 86.3905 47.2123 86.7673 47.8401 87.2692C48.0911 87.5201 48.342 87.7711 48.4679 88.022C48.5938 89.0258 48.2169 90.7832 48.091 91.1593C47.4633 94.9235 45.7067 97.8098 43.3214 100.069L43.3215 100.07ZM77.5842 79.1101C77.0823 76.9767 76.0785 74.9682 74.0702 73.8385C72.9406 73.2108 71.184 74.3404 71.6859 75.7211C72.1878 77.1017 73.0665 78.2314 73.4434 79.6119C73.8202 81.2435 73.8202 82.875 73.5692 84.5066V84.7576C72.3145 86.1382 70.9339 87.3929 69.5534 88.3976C70.0552 85.6364 69.8043 82.6241 67.9218 80.6167C66.7921 79.3619 64.7845 80.7425 65.1606 82.2482C65.9134 85.2605 66.1644 87.7706 64.7838 90.6569C61.5206 91.6607 57.7556 91.9116 54.8686 90.7827C55.3705 87.5196 55.1195 84.1307 54.4917 80.7425C55.8723 77.7303 58.0057 75.0951 60.0142 72.9616C63.6542 69.1966 68.0461 66.4354 71.937 63.0464C74.9492 60.4111 78.9651 54.7628 78.9651 49.994C79.342 50.3708 79.718 50.7468 79.9689 51.1236C81.4746 53.2571 82.2282 55.8925 82.4793 58.5287C82.8561 62.2937 82.6051 66.3096 81.7264 70.0754C80.7226 68.4439 79.3421 67.1892 77.7105 66.6865C76.8318 66.4355 76.079 67.4393 76.4558 68.1921C77.0836 69.4469 78.0874 70.3256 78.7151 71.5811C79.3429 72.9617 79.468 74.3423 79.5938 75.723C78.8402 76.8511 78.2124 77.9807 77.5847 79.1103L77.5842 79.1101Z" fill="#FE641E"/>
<path d="M11.4445 43.2158C12.6992 45.2242 16.2133 43.9687 15.3353 41.5843C12.951 35.058 13.076 28.6576 16.9669 22.7583C18.5985 20.248 20.6069 18.1145 21.8616 15.6043C23.87 20.6249 20.7319 26.3975 21.2338 32.2968C21.6106 37.3173 23.8692 42.965 29.2658 44.0946C30.7715 44.3456 32.5289 43.4669 32.4031 41.7103C32.1521 37.6944 31.7753 33.5525 32.5289 29.6616C33.4076 25.5197 35.6662 22.7585 38.3024 19.4954C40.5617 16.7342 41.9424 13.7219 42.5693 10.4588C43.4481 11.3375 44.3268 12.2162 45.0797 13.22C48.4687 17.9889 48.7197 24.5151 47.464 30.0375C46.9621 32.5479 49.4724 34.4303 51.731 33.3006C55.2449 31.5432 59.261 29.0337 62.2731 25.7706C62.3989 29.1595 61.6453 32.5477 59.6377 35.5599C57.5042 38.6972 63.0266 41.8353 64.6582 38.4462C68.2982 30.9161 67.5444 23.5113 65.7879 15.4779C65.1601 12.4656 60.5163 13.2186 60.5163 16.2307C60.5163 19.9958 57.1274 23.0078 53.7392 25.3923C53.8651 21.3765 53.2373 17.4854 51.6057 13.7206C50.4761 11.2102 49.0954 9.2028 47.213 7.32018C45.7073 5.8145 42.5692 3.68017 41.8164 1.67274C40.8126 -1.21348 36.4198 -0.0846896 37.2986 2.92747C38.4283 6.81833 38.3024 10.8344 36.0439 14.3484C34.2864 17.1096 31.7769 19.2431 30.1454 22.0043C27.3842 26.5221 27.0081 31.7936 27.1331 37.0652C24.7488 33.3002 26.7563 26.0212 27.259 22.507C28.1377 16.9846 26.3803 11.8388 22.2385 8.19986C20.356 6.5683 17.8457 8.19986 18.2226 10.5842C18.7245 13.9731 15.2103 16.8596 13.4538 19.3697C11.8222 21.629 10.5675 24.2644 9.81376 27.0256C8.30648 32.2963 8.43236 38.3207 11.4445 43.2154L11.4445 43.2158Z" fill="#FE641E"/>
</svg>
