<svg width="103" height="103" viewBox="0 0 103 103" fill="none" xmlns="http://www.w3.org/2000/svg">
<path d="M20.9399 29.6263C21.7459 29.7418 21.9761 28.7055 21.2855 28.4753C17.3714 26.8632 21.6312 20.3016 23.703 24.9062C24.5091 26.7485 27.7326 25.827 27.5024 23.8699C27.2722 22.9491 27.387 22.1431 27.7326 21.2224C29.3448 19.1499 30.6105 19.38 31.3018 21.913C31.3018 24.3304 34.7555 24.6761 35.446 22.4888C36.4823 19.0351 40.0514 19.1498 41.5481 22.0284C42.3541 23.5251 44.426 23.2949 45.2319 22.0284C47.189 18.6894 51.2185 18.5747 53.4057 21.913C54.5567 23.7553 57.3198 22.9492 57.4352 20.8767C57.6655 16.2713 63.0761 18.1135 64.3427 21.1069C64.9185 22.3733 66.8756 23.5244 68.0265 22.0277C68.6024 20.6465 69.6386 20.7612 70.9044 22.2579C70.2138 23.2942 70.7889 25.2512 72.1708 25.4813C77.0065 26.1719 73.8977 31.698 71.9406 33.6551C70.0983 35.382 67.9111 36.7638 65.6083 37.6847C60.7726 39.8718 55.2471 41.1384 49.9512 41.4841C40.9713 42.06 31.0709 38.9512 24.8542 32.1584C22.667 29.8557 19.2133 33.3094 21.4005 35.6122C31.3012 46.0887 47.1897 47.9311 60.4295 44.2464C66.6462 42.5195 73.6693 39.7564 77.3531 34.1155C80.1163 29.9713 79.6559 24.3294 75.6262 22.1423C75.8564 20.0698 74.9356 17.998 72.9787 16.8462C70.9062 15.5797 68.7188 16.0401 66.992 17.1919C65.2652 14.8891 62.7322 13.2777 59.6242 13.6227C57.3214 13.8529 55.5946 15.1194 54.4437 16.8461C51.1047 14.5433 46.7303 14.7736 43.5067 17.5367C40.6288 15.0038 36.4839 15.1192 33.8363 17.5367C32.5698 16.1555 30.7275 15.4642 28.6558 15.8099C26.353 16.1555 24.7417 17.7669 23.9357 19.8394C21.6329 18.9186 18.9854 19.2636 17.2586 21.4515C14.7242 24.7913 17.1424 28.8209 20.9411 29.6261L20.9399 29.6263Z" fill="#FE641E"/>
<path d="M41.3182 29.512C42.9303 29.9724 43.2752 31.2389 43.7356 32.6208C44.4262 34.3476 47.1893 34.8079 47.6498 32.6208C48.4558 28.8213 44.3107 25.2529 40.7423 25.2529C38.7853 25.2529 36.7128 26.1737 36.1369 28.1308C35.4463 29.9731 36.4826 32.1604 38.4397 32.5053C38.9001 32.6208 39.2458 32.3899 39.476 31.9295C39.5914 31.5838 39.7062 31.2389 39.8217 30.8932C39.8217 30.663 39.8217 29.7422 39.9371 29.6268C39.9364 29.3966 40.9727 29.512 41.3183 29.512L41.3182 29.512Z" fill="#FE641E"/>
<path d="M58.7018 32.9652C59.3924 31.929 59.6226 30.5478 60.6589 29.6262C61.1193 29.2805 63.1918 28.7054 63.1918 29.7417C63.1918 32.6195 67.6818 32.6195 67.6818 29.7417C67.6818 25.8275 63.4219 23.9852 60.0831 25.2517C57.3199 26.288 54.4422 30.5478 57.3199 33.0807C57.6655 33.5411 58.3561 33.5411 58.7018 32.9652H58.7018Z" fill="#FE641E"/>
<path d="M96.6942 69.4614C96.464 67.7346 97.2701 66.0077 97.5003 64.281C97.9607 61.9782 97.9607 59.791 97.5003 57.4882C96.464 52.1921 93.4707 47.472 92.2042 42.2916C90.9377 37.1111 92.8948 31.6996 91.974 26.5189C91.2834 22.6048 89.6712 17.4235 86.2175 15.0061C85.8718 14.7759 85.6416 14.6604 85.2967 14.6604C84.7208 13.8543 84.1457 13.1637 83.4544 12.5879C81.1516 10.1704 78.1583 9.13419 75.0503 8.21337C71.2508 7.06239 67.567 5.33549 63.8832 3.95352C56.3999 1.07564 48.2261 -1.80298 40.5129 1.42062C37.4042 2.68707 34.872 4.41393 32.1088 6.37099C28.1947 9.13419 23.935 11.2067 19.3295 12.473C13.8025 13.855 7.12537 15.0059 4.70715 20.9926C2.40436 26.4033 4.82261 32.3899 7.93057 37.11C8.39169 39.9886 8.96683 42.982 8.27624 45.5149C6.77959 50.5807 3.44055 54.7249 2.40505 60.021C1.48425 64.7411 1.25407 69.6914 2.28959 74.4117C2.86544 77.0593 3.6715 79.5922 2.98018 82.3554C2.28959 85.1186 0.907689 87.5358 0.332599 90.299C-0.473461 93.8682 0.102395 98.2427 2.98018 100.776C7.12442 104.345 11.6144 101.121 15.7596 99.5092C27.1569 95.0192 39.1298 98.8186 50.8729 99.5092C55.9387 99.8549 60.5434 98.9333 65.0333 96.746C66.8757 96.5158 68.7172 96.1701 70.7898 96.2856C73.7831 96.4011 76.7765 96.746 79.8852 96.746C82.9939 96.746 86.1019 96.4003 89.2109 96.2856C91.0532 96.1701 92.8947 96.1701 94.6216 95.4795C98.3055 93.9829 101.414 90.0687 102.565 86.2695C104.177 81.2037 100.953 78.0957 98.6512 73.9505C97.7297 72.4546 96.8089 71.0727 96.6941 69.4613L96.6942 69.4614ZM19.6727 17.3087C25.7747 15.812 30.9554 13.0488 36.0204 9.36499C38.3232 7.75287 40.7405 6.37168 43.3883 5.33544C47.1877 3.95425 50.7561 4.87505 54.5554 5.91129C61.2325 7.75362 67.6795 10.6314 74.358 12.5884C81.0351 14.5455 85.5251 20.8778 85.4104 27.7851C81.0359 39.1825 69.868 46.0907 58.2405 48.162C45.4611 50.4648 30.0342 49.313 19.2115 41.715C14.4914 38.376 9.88585 33.3109 8.85036 27.439C7.46917 20.1858 14.147 18.6892 19.6727 17.3081V17.3087ZM94.6214 89.4923C92.8945 91.2192 91.3979 91.2191 89.0952 91.3346C83.7991 91.5648 78.734 92.0252 73.4381 91.795H72.4018C75.5106 89.7225 78.7342 87.7655 82.5327 87.4205C85.7561 87.0748 85.8717 82.0097 82.5327 82.24C73.0923 83.1608 67.4507 91.2199 58.8163 93.6374C53.2901 95.2495 47.4189 93.9831 41.8927 93.177C36.4819 92.4864 31.0704 91.9106 25.6596 92.2562C20.7093 92.6019 16.1039 93.6374 11.6139 95.8254C8.96633 97.0918 6.0877 98.4729 5.16688 94.9045C4.47629 92.3716 5.51256 89.8388 6.43333 87.5367C8.16019 82.9313 8.50583 79.3629 7.4696 74.5272C6.31862 69.6915 6.31862 64.5111 7.35413 59.6761C8.50512 54.38 12.1898 50.0057 12.8803 44.7096C12.9958 44.1337 12.9958 43.4431 12.9958 42.8673C23.2423 52.1914 38.5549 54.7243 52.0248 53.8035C66.6456 52.7672 80.8073 45.8598 87.5984 32.8503C87.3682 36.4195 86.9078 39.9879 87.7139 43.6726C88.8649 48.3927 91.3977 52.5371 92.6642 57.258C93.9307 62.0936 91.1676 66.5836 92.3186 71.4184C92.779 73.2607 93.8152 75.1022 94.736 76.7145C95.6568 78.4413 97.7293 80.3983 98.1898 82.3553C98.6509 84.8875 96.3482 87.8808 94.6214 89.4921V89.4923Z" fill="#FE641E"/>
<path d="M57.2054 61.7479C55.1329 58.2942 50.4127 58.87 47.1892 60.5969C42.8147 62.8997 38.8998 67.2741 37.7489 72.1097C35.5617 81.5501 45.0021 89.6092 54.2121 86.2702C62.9619 83.1614 65.8396 70.2674 59.6229 63.2441C58.8168 62.5528 58.0115 62.0924 57.2054 61.7475V61.7479ZM42.3535 74.7574C42.5837 71.534 44.8864 68.6553 47.1892 66.6983C48.4557 65.662 49.6067 65.0862 50.7584 64.7412L50.6429 64.8567C48.11 69.0009 50.2972 78.6723 44.0805 79.9386C42.9295 78.7862 42.2389 77.0593 42.3536 74.7574L42.3535 74.7574ZM56.8597 79.0165C55.0174 81.6641 51.7939 82.7003 48.916 82.3555C51.4489 79.7079 52.7154 76.599 53.2905 72.5695C53.5207 70.8426 53.406 68.6553 54.557 67.1587C56.0536 65.0862 57.0899 67.1587 57.7804 68.7708C58.8167 71.9942 58.8167 76.0232 56.8596 79.0165L56.8597 79.0165Z" fill="#FE641E"/>
</svg>
