<svg width="103" height="112" viewBox="0 0 103 112" fill="none" xmlns="http://www.w3.org/2000/svg">
<path d="M80.6643 56.2631C84.1707 43.6147 81.1651 27.3345 69.1423 19.9452C66.6373 18.3171 64.2581 22.4502 66.7631 23.9525C75.6545 29.3375 78.9106 41.485 76.9075 51.1289C74.7786 61.7741 67.7656 71.1664 56.7444 73.1708C44.9719 75.2996 33.2006 72.2939 26.4381 61.8999C20.677 53.0084 19.6755 41.2357 25.6868 32.2183C29.5693 26.3325 33.9527 22.5755 40.5897 19.945C47.478 17.3153 54.3653 17.44 61.378 18.9433C62.7556 19.1938 63.6324 17.4409 62.3796 16.6889C50.2321 9.80137 33.0745 14.4352 24.5578 25.2053C20.6752 30.215 17.5447 35.2239 16.6678 41.6114C15.7909 47.9981 16.9182 54.6359 19.6736 60.5218C25.685 73.4207 37.9583 80.0585 52.1086 79.0568C59.2472 78.556 65.7595 76.9279 71.0189 71.9182C75.6534 67.5348 78.9095 62.4001 80.6634 56.2632L80.6643 56.2631Z" fill="#FE641E"/>
<path d="M87.8015 74.4242C89.0535 73.297 90.1807 71.9192 91.0576 70.5417C92.4352 68.2872 92.8113 66.1583 92.4352 63.5286C92.0592 61.2742 90.056 57.5172 91.0576 55.3883C91.8088 53.7603 94.4393 52.633 95.6915 51.1305C97.3195 49.1265 97.9459 46.7472 97.9459 44.1175C97.9459 40.1102 96.4435 36.9788 93.0617 34.7252C89.1792 32.0955 89.3048 28.4633 89.1792 23.9552C88.9288 18.4446 86.0487 13.3099 80.2878 12.1827C78.6597 11.9322 77.1572 12.0571 75.5292 11.8066C73.5251 11.4306 72.3986 10.053 71.2714 8.42495C69.5177 6.04574 68.0153 4.0416 65.5103 2.53911C61.0022 -0.0906192 54.865 -0.216184 51.2338 3.41594C50.8578 3.79196 50.2322 3.79196 49.9818 3.91675C47.7273 4.04235 45.3479 2.28869 43.2192 1.41178C40.7143 0.410131 37.8342 -0.34189 35.0789 0.159736C29.9444 1.03657 27.3147 5.54475 24.9345 9.67778C23.432 12.3075 22.8056 14.0611 19.4239 14.1859C16.7942 14.3115 14.6653 14.8123 12.6614 16.5651C8.65327 19.8212 6.64913 25.7071 7.02521 30.7168C7.15082 31.9688 7.65163 33.3465 7.65163 34.5993C7.52603 36.2274 6.52438 37.1043 5.52274 38.3563C3.51866 40.6107 1.76578 42.7396 0.764121 45.6197C-0.989544 50.6294 0.26331 56.64 4.64664 59.7714C7.02584 61.525 10.282 61.9003 10.4077 65.2819C10.5333 68.2878 9.5309 70.667 10.5333 73.6726C11.0341 75.3006 11.911 76.6784 12.9125 77.8056C8.40444 83.6914 4.77224 90.454 0.889723 96.7159C0.0128906 98.2184 1.51614 100.098 3.14418 99.596C7.15145 98.4687 18.4231 95.3382 19.8009 95.3382C19.9265 95.5886 20.0513 95.839 20.1769 96.0894C22.9322 100.848 25.1866 105.858 27.566 110.742C28.3173 112.12 30.4461 111.994 31.1982 110.742C34.4544 104.981 37.5849 99.0952 40.841 93.3341C43.7211 93.2085 46.7269 92.0821 49.2317 90.5788C50.6093 89.702 52.1117 88.1996 53.7397 87.6988C55.8686 87.0724 57.1214 87.9492 58.8742 89.0764C59.8759 89.7029 60.8783 90.2037 61.8801 90.5789C64.2593 97.4672 67.6411 104.104 70.6468 110.742C71.398 112.37 73.402 111.619 73.9029 110.366C76.5326 103.979 79.0374 97.5918 81.6671 91.2053C87.8032 92.4574 94.3155 93.3342 100.327 95.2126C101.955 95.7134 103.709 93.7102 102.706 92.2068C98.3211 85.9449 92.8114 80.184 87.8016 74.4237L87.8015 74.4242ZM22.8052 92.4576C21.0516 90.3287 18.5475 91.3304 16.1674 91.9568C13.0369 92.708 10.0313 93.5849 7.02548 94.4618C10.0313 89.7032 13.1616 84.9437 15.5419 79.9348C17.4203 81.0621 19.7996 81.8133 22.1797 82.0637C25.1855 82.4397 27.9408 82.3141 29.8191 85.0695C31.3216 87.4487 32.1983 89.9537 34.5778 91.5818C35.2042 91.9578 35.8298 92.333 36.4562 92.5834C34.2018 96.7164 31.8224 100.974 29.5679 105.107C28.9415 103.855 28.3159 102.728 27.6894 101.475C26.1862 98.7196 24.9341 95.0874 22.8052 92.4576ZM56.2436 81.6876C50.4825 81.0612 47.2264 86.9479 41.8413 87.8238C35.8299 88.8254 35.4547 81.6876 31.5722 78.9323C27.6896 76.177 22.8055 77.8051 18.9237 75.5506C13.1627 72.1689 18.1725 65.7823 15.9179 61.0237C14.0395 56.8906 7.9032 56.5156 6.65041 52.257C4.89675 46.4959 11.0338 43.3655 13.2882 39.1069C14.4155 36.8525 14.2899 34.7236 13.9146 32.3444C13.4138 29.5891 13.5386 26.8338 14.6659 24.2041C16.0435 21.0735 17.922 20.5718 21.0525 20.3215C23.1814 20.0711 25.0598 19.4447 26.6879 17.9423C29.8184 14.9365 30.8209 8.6748 34.8282 6.67147C39.8379 4.04174 44.5965 9.17644 49.731 8.80036C51.7351 8.67476 54.1144 6.42115 54.8655 5.79455C58.748 3.03927 63.1314 5.41853 66.0116 10.0523C68.2661 13.6845 70.2694 16.9407 74.9031 17.5662C77.5328 17.9423 80.2881 17.4406 82.2922 19.6951C84.0459 21.6992 82.9186 24.5793 82.9186 27.0843C82.9186 30.8412 83.6699 33.9726 85.7987 37.2287C87.1763 39.2328 89.3051 39.7337 90.8084 41.4865C93.6885 45.1187 89.9316 48.2491 87.6779 50.5037C84.2962 53.7599 84.5473 57.1415 85.549 61.3993C86.3002 64.0291 87.177 66.0332 85.4234 68.4124C83.7953 70.6669 81.6664 71.2924 79.1614 72.4197C74.2773 74.4237 72.7748 77.8047 70.0195 81.9377C68.2658 84.5674 65.7617 86.6963 62.5056 85.0683C60.1247 83.5666 58.6222 81.9385 56.243 81.6882L56.2436 81.6876ZM81.0389 87.3229C79.9117 87.0725 79.1604 87.5733 78.7845 88.575C76.6556 94.0855 74.4011 99.7211 72.1467 105.232C70.1426 100.473 68.1394 95.7136 65.6344 91.0799C65.8848 91.0799 66.1352 91.0799 66.3857 90.9543C68.7649 90.5783 71.0195 89.2007 72.8979 87.5727C75.1523 85.3182 76.0285 82.1876 78.1582 79.8084C79.7862 78.0548 81.9151 77.554 84.044 76.6779C87.6762 81.0612 91.1826 85.6951 94.9396 89.9527C93.5619 89.7023 92.1843 89.4519 90.8066 89.2014C87.5513 88.575 84.2951 87.9494 81.039 87.323L81.0389 87.3229Z" fill="#FE641E"/>
<path d="M58.1225 31.5914C56.3688 28.4608 52.3614 27.9592 48.9805 28.8361C44.2219 29.9634 40.089 33.47 37.208 37.2267C31.4469 44.4901 31.0718 56.3874 40.088 61.2711C48.2283 65.7792 58.4975 63.7761 63.007 55.2597C65.3863 50.7516 65.6368 45.2411 64.3847 40.3569C63.3823 36.9768 61.5038 32.8438 58.1228 31.591L58.1225 31.5914ZM39.3369 47.1209C40.0881 42.9878 43.3442 39.1061 46.726 36.7261C47.8533 35.9749 48.9805 35.4741 49.9822 35.2236C49.3557 36.2253 48.8549 37.2277 48.4797 38.3542C46.9765 43.2384 48.2285 53.2579 41.5914 54.7604C39.8377 52.8819 38.8361 50.2523 39.3369 47.1209L39.3369 47.1209ZM56.3686 54.8859C53.9894 57.3909 50.6075 58.142 47.4772 57.6412C50.9836 54.009 52.6117 49.5009 53.2383 43.8656C53.4887 42.1119 53.4887 38.4805 55.2424 37.4789C57.4968 36.1012 58.624 40.1086 58.9993 41.7367C60.2514 46.2439 59.7505 51.5042 56.3688 54.8859H56.3686Z" fill="#FE641E"/>
</svg>
