<svg width="30" height="27" viewBox="0 0 30 27" fill="none" xmlns="http://www.w3.org/2000/svg">
<g clip-path="url(#clip0_563_285)">
<path d="M15.791 1.58838C12.3604 1.58838 11.9299 1.60347 10.5825 1.66514C9.23774 1.72709 8.31984 1.94124 7.51667 2.25544C6.68587 2.57998 5.98113 3.0141 5.27901 3.72061C4.57638 4.42685 4.14479 5.13574 3.8211 5.97116C3.50794 6.77931 3.29478 7.70288 3.23426 9.05501C3.17399 10.4103 3.1582 10.8437 3.1582 14.2944C3.1582 17.7451 3.17347 18.1769 3.23452 19.5322C3.29636 20.8848 3.50926 21.8081 3.82137 22.616C4.14427 23.4517 4.57585 24.1606 5.27823 24.8669C5.98007 25.5736 6.68482 26.0088 7.51509 26.3333C8.31878 26.6475 9.23695 26.8617 10.5814 26.9236C11.9288 26.9853 12.3591 27.0004 15.7894 27.0004C19.2202 27.0004 19.6494 26.9853 20.9968 26.9236C22.3416 26.8617 23.2605 26.6475 24.0642 26.3333C24.8947 26.0088 25.5984 25.5736 26.3003 24.8669C27.0029 24.1606 27.4345 23.4517 27.7582 22.6163C28.0687 21.8081 28.2819 20.8846 28.345 19.5324C28.4056 18.1771 28.4214 17.7451 28.4214 14.2944C28.4214 10.8437 28.4056 10.4106 28.345 9.05528C28.2819 7.70262 28.0687 6.77931 27.7582 5.97142C27.4345 5.13574 27.0029 4.42685 26.3003 3.72061C25.5976 3.01383 24.895 2.57971 24.0634 2.25544C23.2582 1.94124 22.3397 1.72709 20.995 1.66514C19.6476 1.60347 19.2186 1.58838 15.787 1.58838H15.791ZM14.6578 3.87811C14.9941 3.87758 15.3694 3.87811 15.791 3.87811C19.1636 3.87811 19.5634 3.89029 20.8952 3.95117C22.1268 4.00782 22.7952 4.21482 23.2405 4.38873C23.83 4.61903 24.2503 4.89432 24.6921 5.33903C25.1342 5.78375 25.4079 6.20728 25.6374 6.80023C25.8103 7.24758 26.0163 7.91994 26.0724 9.15878C26.1329 10.4982 26.1461 10.9006 26.1461 14.2915C26.1461 17.6824 26.1329 18.0848 26.0724 19.4242C26.0161 20.663 25.8103 21.3354 25.6374 21.7827C25.4084 22.3757 25.1342 22.7979 24.6921 23.2423C24.25 23.687 23.8303 23.9623 23.2405 24.1926C22.7958 24.3673 22.1268 24.5738 20.8952 24.6305C19.5636 24.6914 19.1636 24.7046 15.791 24.7046C12.418 24.7046 12.0183 24.6914 10.6867 24.6305C9.45511 24.5733 8.78668 24.3663 8.34115 24.1924C7.75167 23.9621 7.33061 23.6868 6.88851 23.2421C6.4464 22.7974 6.17271 22.3749 5.94323 21.7817C5.77034 21.3343 5.56428 20.662 5.50823 19.4231C5.4477 18.0837 5.4356 17.6813 5.4356 14.2883C5.4356 10.8953 5.4477 10.495 5.50823 9.1556C5.56454 7.91677 5.77034 7.24441 5.94323 6.79652C6.17218 6.20357 6.4464 5.78004 6.88851 5.33533C7.33061 4.89062 7.75167 4.61532 8.34115 4.3845C8.78642 4.20979 9.45511 4.00332 10.6867 3.9464C11.852 3.89346 12.3036 3.87758 14.6578 3.87493V3.87811ZM22.5337 5.98784C21.6968 5.98784 21.0179 6.66999 21.0179 7.51203C21.0179 8.3538 21.6968 9.03675 22.5337 9.03675C23.3705 9.03675 24.0495 8.3538 24.0495 7.51203C24.0495 6.67025 23.3705 5.98731 22.5337 5.98731V5.98784ZM15.791 7.76932C12.2086 7.76932 9.30406 10.6909 9.30406 14.2944C9.30406 17.8979 12.2086 20.8181 15.791 20.8181C19.3734 20.8181 22.2768 17.8979 22.2768 14.2944C22.2768 10.6909 19.3731 7.76932 15.7907 7.76932H15.791ZM15.791 10.0591C18.1163 10.0591 20.0015 11.9552 20.0015 14.2944C20.0015 16.6334 18.1163 18.5297 15.791 18.5297C13.4654 18.5297 11.5804 16.6334 11.5804 14.2944C11.5804 11.9552 13.4654 10.0591 15.791 10.0591V10.0591Z" fill="#414141"/>
</g>
<defs>
<clipPath id="clip0_563_285">
<rect width="30" height="27" fill="white"/>
</clipPath>
</defs>
</svg>
