<svg width="30" height="30" viewBox="0 0 30 30" fill="none" xmlns="http://www.w3.org/2000/svg">
<g clip-path="url(#clip0_563_289)">
<path d="M9.32031 10.2539C10.5176 10.2539 11.4883 9.28327 11.4883 8.08594C11.4883 6.8886 10.5176 5.91797 9.32031 5.91797C8.12298 5.91797 7.15234 6.8886 7.15234 8.08594C7.15234 9.28327 8.12298 10.2539 9.32031 10.2539Z" fill="#414141"/>
<path d="M15.2969 11.3672V22.9688V11.3672ZM9.32031 11.3672V22.9688Z" fill="#414141"/>
<path d="M9.32031 11.3672V22.9688M15.2969 11.3672V22.9688V11.3672Z" stroke="#414141" stroke-width="3.22266"/>
<path d="M16.1719 16.5234C16.1719 15.3516 16.9336 14.1797 18.2812 14.1797C19.6875 14.1797 20.2148 15.2344 20.2148 16.8164V22.9688H24.082V16.3477C24.082 12.7734 22.207 11.1328 19.6289 11.1328C17.6367 11.1328 16.6406 12.2461 16.1719 13.0078" fill="#414141"/>
</g>
<defs>
<clipPath id="clip0_563_289">
<rect width="30" height="30" fill="white"/>
</clipPath>
</defs>
</svg>
