<svg width="126" height="18" viewBox="0 0 126 18" fill="none" xmlns="http://www.w3.org/2000/svg">
<path d="M4.544 17H0.1V7.188H10.242V10.972H4.544V17ZM10.55 4.966H0.1V1.16H10.55V4.966ZM22.6103 17H12.7543V1.16H17.1983V13.194H22.6103V17ZM24.807 11.566V1.16H29.251V11.522C29.251 12.6367 29.7864 13.194 30.857 13.194H32.991V1.16H37.413V17H29.427C29.0457 17 28.4444 16.89 27.623 16.67C26.8017 16.4353 26.127 15.922 25.599 15.13C25.071 14.338 24.807 13.15 24.807 11.566ZM44.0538 17H39.6098V7.188H44.0538V17ZM44.0538 4.966H39.6098V1.16H44.0538V4.966ZM46.4024 6.066C47.0331 4.59933 47.9864 3.41867 49.2624 2.524C50.5531 1.61467 51.8804 1.16 53.2444 1.16H56.6324V4.966H54.9164C53.8751 4.966 53.0098 5.19333 52.3204 5.648C51.6311 6.088 51.1324 6.60133 50.8244 7.188C50.5164 7.76 50.3624 8.36133 50.3624 8.992C50.3624 10.3267 50.8538 11.3607 51.8364 12.094C52.8338 12.8273 53.8238 13.194 54.8064 13.194H56.6324V17H53.4424C51.9904 17 50.6044 16.5453 49.2844 15.636C47.9791 14.7267 47.0698 13.6633 46.5564 12.446C46.0578 11.214 45.8084 10.07 45.8084 9.014C45.8084 8.002 46.0064 7.01933 46.4024 6.066ZM61.4123 15.35C60.4443 14.5433 59.6963 13.5827 59.1683 12.468C58.6403 11.3387 58.3763 10.1653 58.3763 8.948C58.3763 6.68933 59.1829 4.77533 60.7963 3.206C62.4096 1.63667 64.3969 0.851999 66.7583 0.851999C67.7556 0.851999 68.8996 1.07933 70.1903 1.534C71.4809 1.98867 72.6176 2.92733 73.6003 4.35C74.5829 5.758 75.0743 7.30533 75.0743 8.992C75.0743 10.1947 74.8176 11.3387 74.3043 12.424C73.7909 13.5093 73.0943 14.426 72.2143 15.174C71.3343 15.922 70.4323 16.472 69.5083 16.824C68.5989 17.1613 67.6603 17.33 66.6923 17.33C64.7563 17.33 62.9963 16.67 61.4123 15.35ZM63.0623 9.036C63.0623 9.71067 63.1503 10.3193 63.3263 10.862C63.5169 11.39 63.8616 11.9547 64.3603 12.556C64.8736 13.1573 65.6583 13.458 66.7143 13.458C67.8143 13.458 68.6063 13.15 69.0903 12.534C69.5889 11.918 69.9189 11.3533 70.0803 10.84C70.2563 10.312 70.3443 9.68867 70.3443 8.97C70.3443 8.266 70.2416 7.584 70.0363 6.924C69.8456 6.24933 69.4496 5.692 68.8483 5.252C68.2469 4.812 67.5576 4.592 66.7803 4.592C66.5163 4.592 66.2596 4.614 66.0103 4.658C65.7756 4.702 65.4089 4.82667 64.9103 5.032C64.4263 5.23733 63.9936 5.68467 63.6123 6.374C63.2456 7.06333 63.0623 7.95067 63.0623 9.036ZM81.2647 17H76.8207V7.188H86.9627V10.972H81.2647V17ZM87.2707 4.966H76.8207V1.16H87.2707V4.966ZM93.919 17H89.475V7.188H99.617V10.972H93.919V17ZM99.925 4.966H89.475V1.16H99.925V4.966ZM112.909 17H102.129V7.188H112.579V10.972H106.573V13.194H112.909V17ZM112.909 4.966H102.129V1.16H112.909V4.966ZM125.886 17H115.106V7.188H125.556V10.972H119.55V13.194H125.886V17ZM125.886 4.966H115.106V1.16H125.886V4.966Z" fill="#EBEBEB"/>
</svg>
