<svg width="61" height="54" viewBox="0 0 61 54" fill="none" xmlns="http://www.w3.org/2000/svg">
<g clip-path="url(#clip0_199_107)">
<path d="M31.7929 1.67591C31.2903 1.44136 30.7097 1.44136 30.2071 1.67591L2.08209 14.8009C1.40468 15.117 0.979769 15.8054 1.00074 16.5526C1.02172 17.2999 1.48456 17.9633 2.17865 18.2409L30.3036 29.4909C30.7507 29.6697 31.2493 29.6697 31.6964 29.4909L53.5 20.7694V42.75C51.4289 42.75 49.75 44.4289 49.75 46.5V54H61V46.5C61 44.4289 59.3211 42.75 57.25 42.75V19.2694L59.8214 18.2409C60.5154 17.9633 60.9783 17.2999 60.9993 16.5526C61.0202 15.8054 60.5953 15.117 59.9179 14.8009L31.7929 1.67591ZM31 25.7306L7.59257 16.3676L31 5.44412L54.4074 16.3676L31 25.7306Z" fill="#132942"/>
<path d="M16.6584 27.8694C16.1706 27.6865 15.6287 27.7147 15.1626 27.9474C14.6965 28.1801 14.3482 28.5962 14.2012 29.0959L12.3262 35.4709C12.0533 36.3987 12.5308 37.3817 13.4286 37.7409L30.3036 44.4909C30.7507 44.6697 31.2493 44.6697 31.6964 44.4909L48.5714 37.7409C49.4692 37.3817 49.9467 36.3987 49.6738 35.4709L47.7988 29.0959C47.6518 28.5962 47.3035 28.1801 46.8374 27.9474C46.3713 27.7147 45.8294 27.6865 45.3416 27.8694L31 33.2475L16.6584 27.8694ZM16.4051 34.8926L17.2298 32.0887L30.3416 37.0056C30.7661 37.1648 31.2339 37.1648 31.6584 37.0056L44.7702 32.0887L45.5949 34.8926L31 40.7305L16.4051 34.8926Z" fill="#132942"/>
</g>
<defs>
<clipPath id="clip0_199_107">
<rect width="61" height="54" fill="white"/>
</clipPath>
</defs>
</svg>
