<svg width="61" height="66" viewBox="0 0 61 66" fill="none" xmlns="http://www.w3.org/2000/svg">
<path fill-rule="evenodd" clip-rule="evenodd" d="M1 2H4.75V58.25H61V62H1V2ZM38.5 15.125C38.5 14.0895 39.3395 13.25 40.375 13.25H55.375C56.4105 13.25 57.25 14.0895 57.25 15.125V30.125C57.25 31.1605 56.4105 32 55.375 32C54.3395 32 53.5 31.1605 53.5 30.125V20.3776L39.9512 36.9373C39.6157 37.3473 39.1225 37.5963 38.5934 37.6227C38.0643 37.6491 37.5488 37.4504 37.1742 37.0758L27.4758 27.3774L13.7664 46.2278C13.1573 47.0653 11.9847 47.2505 11.1472 46.6414C10.3097 46.0323 10.1245 44.8596 10.7336 44.0222L25.7336 23.3972C26.0562 22.9537 26.5567 22.6736 27.1033 22.6307C27.65 22.5879 28.1881 22.7864 28.5758 23.1742L38.3608 32.9592L51.4183 17H40.375C39.3395 17 38.5 16.1605 38.5 15.125Z" fill="#132942"/>
</svg>
