<svg width="79" height="60" viewBox="0 0 79 60" fill="none" xmlns="http://www.w3.org/2000/svg">
<path d="M13.75 12.75C13.75 10.6789 15.4289 9 17.5 9H62.5C64.5711 9 66.25 10.6789 66.25 12.75L13.75 12.75Z" fill="#132942"/>
<path d="M40 42.75C44.1421 42.75 47.5 39.3921 47.5 35.25C47.5 31.1079 44.1421 27.75 40 27.75C35.8579 27.75 32.5 31.1079 32.5 35.25C32.5 39.3921 35.8579 42.75 40 42.75Z" fill="#132942"/>
<path d="M10 20.25C10 18.1789 11.6789 16.5 13.75 16.5H66.25C68.3211 16.5 70 18.1789 70 20.25V50.25C70 52.3211 68.3211 54 66.25 54H13.75C11.6789 54 10 52.3211 10 50.25V20.25ZM21.25 20.25C21.25 24.3921 17.8921 27.75 13.75 27.75V42.75C17.8921 42.75 21.25 46.1079 21.25 50.25H58.75C58.75 46.1079 62.1079 42.75 66.25 42.75V27.75C62.1079 27.75 58.75 24.3921 58.75 20.25H21.25Z" fill="#132942"/>
</svg>
