<svg width="60" height="60" viewBox="0 0 60 60" fill="none" xmlns="http://www.w3.org/2000/svg">
<path d="M0 1.875C0 0.839466 0.839466 0 1.875 0H58.125C59.1605 0 60 0.839466 60 1.875V13.125C60 14.1605 59.1605 15 58.125 15H52.5V22.5H58.125C59.1605 22.5 60 23.3395 60 24.375V35.625C60 36.6605 59.1605 37.5 58.125 37.5H52.5V45H58.125C59.1605 45 60 45.8395 60 46.875V58.125C60 59.1605 59.1605 60 58.125 60H1.875C0.839466 60 0 59.1605 0 58.125V46.875C0 45.8395 0.839466 45 1.875 45H7.5V37.5H1.875C0.839466 37.5 0 36.6605 0 35.625V24.375C0 23.3395 0.839466 22.5 1.875 22.5H7.5V15H1.875C0.839466 15 0 14.1605 0 13.125V1.875ZM11.25 15V22.5H28.125V15H11.25ZM31.875 15V22.5H48.75V15H31.875ZM11.25 37.5V45H28.125V37.5H11.25ZM31.875 37.5V45H48.75V37.5H31.875ZM3.75 3.75V11.25H16.875V3.75H3.75ZM20.625 3.75V11.25H39.375V3.75H20.625ZM43.125 3.75V11.25H56.25V3.75H43.125ZM3.75 26.25V33.75H16.875V26.25H3.75ZM20.625 26.25V33.75H39.375V26.25H20.625ZM43.125 26.25V33.75H56.25V26.25H43.125ZM3.75 48.75V56.25H16.875V48.75H3.75ZM20.625 48.75V56.25H39.375V48.75H20.625ZM43.125 48.75V56.25H56.25V48.75H43.125Z" fill="#132942"/>
</svg>
